<?xml version="1.0" encoding="utf-8"?>
<!-- Generator: Adobe Illustrator 26.4.1, SVG Export Plug-In . SVG Version: 6.00 Build 0)  -->
<svg version="1.1" id="Layer_1" xmlns="http://www.w3.org/2000/svg" xmlns:xlink="http://www.w3.org/1999/xlink" x="0px" y="0px"
	 viewBox="0 0 72 72" style="enable-background:new 0 0 72 72;" xml:space="preserve">

<g id="BTN_Flecha" transform="translate(72) rotate(90)">
	<g id="Grupo_180" transform="translate(-301.917 -331.274)">
		<g id="Grupo_179">
			<g id="Grupo_178">
				<path id="Trazado_388" d="M329.7,384.1c-0.6,0-1-0.4-1-1c0-0.3,0.1-0.6,0.4-0.8l18.3-14.2c0.4-0.3,0.5-1,0.2-1.4
					c-0.1-0.1-0.1-0.1-0.2-0.2l-18.3-14.2c-0.4-0.3-0.5-1-0.2-1.4c0.3-0.4,1-0.5,1.4-0.2c0,0,0,0,0,0l18.3,14.2
					c1.3,1,1.5,2.9,0.5,4.2c-0.2,0.2-0.3,0.4-0.5,0.5l-18.3,14.2C330.2,384,329.9,384.1,329.7,384.1z"/>
			</g>
		</g>
	</g>
</g>
</svg>
