<svg id="tBl25S" xmlns="http://www.w3.org/2000/svg" width="19.447" height="19.449" viewBox="0 0 19.447 19.449">
  <g id="Grupo_93" data-name="Grupo 93">
    <g id="Grupo_92" data-name="Grupo 92">
      <path id="Trazado_261" data-name="Trazado 261" d="M581.076,345.171a2.6,2.6,0,0,1-.22.3q-4.017,4.023-8.036,8.046a1.22,1.22,0,0,1-.959.4c-.551-.017-1.105-.008-1.656.013a.663.663,0,0,0-.393.161c-.35.322-.677.67-1.016,1a1.208,1.208,0,1,1-1.7-1.712c.334-.339.679-.667,1.005-1.015a.584.584,0,0,0,.144-.343c.021-.561.037-1.124.023-1.685a1.257,1.257,0,0,1,.413-.985q4.022-4,8.025-8.016c.081-.08.174-.148.295-.25-.337-.332-.641-.629-.941-.931a.614.614,0,0,1,.007-1.026q.837-.84,1.677-1.677a.6.6,0,0,1,.986,0c.289.289.566.588.887.923.159-.172.283-.313.415-.446.429-.433.855-.869,1.293-1.292a1.956,1.956,0,0,1,2.694-.088,21.583,21.583,0,0,1,1.615,1.615,1.945,1.945,0,0,1-.089,2.693c-.481.5-.979.988-1.474,1.476a2.114,2.114,0,0,1-.283.2c.353.344.649.627.938.916a.6.6,0,0,1,.01.987q-.855.863-1.718,1.717a.6.6,0,0,1-.967,0C581.748,345.851,581.448,345.545,581.076,345.171Zm-7.9,1.429a.368.368,0,0,0,.081.02c1.541,0,3.083.005,4.624,0a.521.521,0,0,0,.314-.152c.378-.361.741-.739,1.114-1.105.256-.251.521-.494.758-.719l-2.46-2.47Z" transform="translate(-566.688 -336.054)" fill="#29abe2"/>
    </g>
  </g>
</svg>
