<svg xmlns="http://www.w3.org/2000/svg" width="52" height="52" viewBox="0 0 52 52">
  <g id="Grupo_427" data-name="Grupo 427" transform="translate(-265.478 -153.944)">
    <g id="Grupo_426" data-name="Grupo 426">
      <g id="Grupo_425" data-name="Grupo 425">
        <g id="Grupo_424" data-name="Grupo 424">
          <path id="Trazado_708" data-name="Trazado 708" d="M291.128,188.808a8.4,8.4,0,0,1-1.946-.21,7.916,7.916,0,0,1-1.61-.56,7.044,7.044,0,0,1-1.3-.8,7.6,7.6,0,0,1-1.022-.952l1.176-1.512a9.075,9.075,0,0,0,1.89,1.484,5.126,5.126,0,0,0,2.674.644,3.962,3.962,0,0,0,2.66-.882,2.982,2.982,0,0,0,1.036-2.394,3.5,3.5,0,0,0-.294-1.442,2.79,2.79,0,0,0-.966-1.134,4.979,4.979,0,0,0-1.764-.728,12.174,12.174,0,0,0-2.688-.252v-1.764a9.65,9.65,0,0,0,2.394-.252,4.52,4.52,0,0,0,1.568-.7,2.5,2.5,0,0,0,.854-1.064,3.438,3.438,0,0,0,.252-1.316,2.672,2.672,0,0,0-.826-2.072,3.212,3.212,0,0,0-2.254-.756,4.277,4.277,0,0,0-2.058.5,7.473,7.473,0,0,0-1.75,1.316l-1.232-1.456a9.621,9.621,0,0,1,2.282-1.61,6.21,6.21,0,0,1,2.842-.63,7.177,7.177,0,0,1,2.156.308,5.152,5.152,0,0,1,1.694.882A3.921,3.921,0,0,1,296,172.876a4.526,4.526,0,0,1,.392,1.932,3.921,3.921,0,0,1-.9,2.66,5.787,5.787,0,0,1-2.352,1.6v.112a6.281,6.281,0,0,1,1.512.574,4.749,4.749,0,0,1,1.232.952,4.162,4.162,0,0,1,.826,1.33,4.6,4.6,0,0,1,.294,1.68,4.808,4.808,0,0,1-.462,2.128,4.734,4.734,0,0,1-1.26,1.61,5.677,5.677,0,0,1-1.862,1.008A7.32,7.32,0,0,1,291.128,188.808Z" fill="lime"/>
        </g>
      </g>
    </g>
  </g>
</svg>
