<svg id="_3_-_Toldo" data-name="3 - Toldo" xmlns="http://www.w3.org/2000/svg" width="382.009" height="145.403" viewBox="0 0 382.009 145.403">
  <g id="Grupo_301" data-name="Grupo 301" transform="translate(-50.637 -155.376)">
    <path id="Trazado_565" data-name="Trazado 565" d="M390.751,300.779a18.874,18.874,0,0,1-18.823-17.843l-168.2.964-15.539,2.961a18.852,18.852,0,0,1-36.317.259l-14.566-3.831-74.6-2.986c-7.229-.532-11.567-4.358-11.935-10.5-.019-2.025-.4-48.468.207-56.074.6-7.58,5.54-50.24,5.589-50.67,0-.057.843-7.655,10.461-7.685H300.9c16.348,0,35.862,3.653,56.649,30.748,2.068,2.7,30,35.37,32.459,38.251,3,1.1,28.74,10.6,34.446,15.772h0c5.7,5.166,9.31,17.7,7.884,27.368-.768,5.207-2.9,8.782-6.183,10.339-3.72,1.768-13.707,4.2-16.568,4.873A18.873,18.873,0,0,1,390.751,300.779ZM373.9,280.924v1.006a16.85,16.85,0,0,0,33.7,0v-.8l.775-.179c.128-.029,12.844-2.971,16.917-4.907,3.344-1.589,4.6-5.676,5.063-8.825,1.318-8.94-2.069-20.9-7.249-25.594h0c-5.641-5.114-33.749-15.362-34.032-15.465l-.248-.09-.171-.2c-1.245-1.456-30.512-35.686-32.7-38.533-20.257-26.4-39.2-29.965-55.062-29.965H67.032c-7.761.024-8.451,5.66-8.476,5.9-.052.445-4.985,43.069-5.584,50.613-.6,7.519-.207,55.365-.2,55.847.391,6.492,5.681,8.248,10.05,8.571l74.788,2.992.106.028,15.805,4.157.144.573a16.85,16.85,0,0,0,32.743-.286l.147-.633,17.077-3.237Z" fill="#fff"/>
  </g>
  <g id="Rect치ngulo_269" data-name="Rect치ngulo 269" transform="translate(20.363 17.624)" fill="lime" stroke="lime" stroke-linecap="round" stroke-width="2">
    <rect width="228" height="7" rx="2" stroke="none"/>
    <rect x="1" y="1" width="226" height="5" rx="1" fill="none"/>
  </g>
  <path id="Trazado_1753" data-name="Trazado 1753" d="M248.306,65.134l27.188,26.2L52.7,92,26.765,65.45Z" transform="translate(-3.819 -42)" fill="none" stroke="lime" stroke-linecap="round" stroke-width="2"/>
  <g id="Rect치ngulo_268" data-name="Rect치ngulo 268" transform="translate(46.363 46.624)" fill="none" stroke="lime" stroke-linecap="round" stroke-width="2">
    <rect width="228" height="7" rx="2" stroke="none"/>
    <rect x="1" y="1" width="226" height="5" rx="1" fill="none"/>
  </g>
</svg>
