<svg xmlns="http://www.w3.org/2000/svg" width="404.908" height="158.986" viewBox="0 0 404.908 158.986">
  <g id="Grupo_417" data-name="Grupo 417" transform="translate(-42.946 -134.969)">
    <path id="Trazado_704" data-name="Trazado 704" d="M378.618,293.955a6.009,6.009,0,0,1-3.528-.985,4.616,4.616,0,0,1-1.81-3.991c0-3.618,2.248-8.329,3.5-10.672H331.4a23.442,23.442,0,0,1-20.236,11.626H60.729A16.017,16.017,0,0,1,44.82,275.185c-1.174-15.618-1.874-38.317-1.874-60.723,0-22.7.681-44.756,1.87-60.521A16.017,16.017,0,0,1,60.725,139.2H311.161a23.478,23.478,0,0,1,20.111,11.42H376.78c-1.252-2.344-3.5-7.055-3.5-10.672a4.612,4.612,0,0,1,1.81-3.99c1.885-1.359,4.765-1.1,6.659-.475,2.591.864,7.978,10.183,8.435,15.1,3.669-.153,16.488-.612,23.4.046l1.147.106c7.739.7,17.37,1.575,23.932,16.4,6.5,14.7,8.812,22.081,9.192,47.215v.221c-.388,25.678-1.853,33.188-9.219,47.286-7.788,14.9-16.287,15.664-23.785,16.336l-1.267.116c-6.909.657-19.729.2-23.4.046-.458,4.912-5.844,14.23-8.435,15.094A10.174,10.174,0,0,1,378.618,293.955ZM330.279,276.4H380.1l-.871,1.447c-.041.067-4.04,6.759-4.04,11.134a2.781,2.781,0,0,0,1.019,2.442c1.21.874,3.409.721,4.939.212,1.659-.554,7.513-10.2,7.149-14.194l-.1-1.09,1.1.05c.163.007,16.3.749,24.111,0l1.279-.116c7.353-.659,14.958-1.34,22.263-15.32,7.19-13.759,8.62-21.133,9-46.416v-.192c-.375-24.763-2.643-32.024-9.03-46.456-6.107-13.8-14.741-14.583-22.358-15.274l-1.157-.107c-7.812-.742-23.949,0-24.111,0l-1.1.052.1-1.091c.364-4-5.49-13.641-7.149-14.194-1.531-.509-3.729-.661-4.94.212a2.781,2.781,0,0,0-1.018,2.442c0,4.375,4,11.067,4.04,11.134l.871,1.446H330.167l-.274-.483A21.567,21.567,0,0,0,311.161,141.1H60.725a14.1,14.1,0,0,0-14.006,12.979c-1.185,15.72-1.865,37.727-1.865,60.378,0,22.361.7,45.008,1.87,60.58a14.1,14.1,0,0,0,14.005,12.982H311.161a21.534,21.534,0,0,0,18.845-11.132Z" fill="#fff"/>
  </g>
</svg>
