<svg xmlns="http://www.w3.org/2000/svg" width="28" height="27.08" viewBox="0 0 28 27.08">
  <g id="Grupo_63" data-name="Grupo 63" transform="translate(-756.925 -429.353)">
    <path id="Trazado_224" data-name="Trazado 224" d="M778.886,446.354a4.04,4.04,0,0,1,0,8.079H762.964a4.04,4.04,0,0,1,0-8.079h15.922m0-2H762.964a6.04,6.04,0,0,0,0,12.079h15.922a6.04,6.04,0,0,0,0-12.079Z" fill="#fff"/>
    <path id="Trazado_225" data-name="Trazado 225" d="M763.074,448.419a2,2,0,1,0,2,2,2,2,0,0,0-2-2Z" fill="#fff"/>
    <path id="Trazado_226" data-name="Trazado 226" d="M778.886,429.353H762.965a6.04,6.04,0,0,0-6.04,6.039h0a6.04,6.04,0,0,0,6.04,6.039h15.921a6.039,6.039,0,0,0,6.039-6.039h0A6.039,6.039,0,0,0,778.886,429.353Zm-.109,8.514a2.5,2.5,0,1,1,2.5-2.5A2.5,2.5,0,0,1,778.777,437.867Z" fill="#fff"/>
  </g>
</svg>
