<svg xmlns="http://www.w3.org/2000/svg" width="63.111" height="52" viewBox="0 0 63.111 52">
  <g id="Grupo_1027" data-name="Grupo 1027" transform="translate(-55.574 -244.825)">
    <g id="Grupo_1026" data-name="Grupo 1026" transform="translate(-0.432 0.001)">
      <line id="Línea_6" data-name="Línea 6" y2="35" transform="translate(87.562 253.325)" fill="none" stroke="#29abe2" stroke-linecap="round" stroke-width="2"/>
      <path id="Trazado_1742" data-name="Trazado 1742" d="M35.806,11l-5.25,5.25L25.306,11" transform="translate(57.006 245.825)" fill="none" stroke="#29abe2" stroke-linecap="round" stroke-width="2"/>
      <path id="Trazado_1743" data-name="Trazado 1743" d="M25.306,39l5.25-5.25L35.806,39" transform="translate(57.006 245.825)" fill="none" stroke="#29abe2" stroke-linecap="round" stroke-width="2"/>
      <line id="Línea_7" data-name="Línea 7" x2="30.311" y2="17.5" transform="translate(72.406 262.075)" fill="none" stroke="#29abe2" stroke-linecap="round" stroke-width="2"/>
      <path id="Trazado_1744" data-name="Trazado 1744" d="M21.056,13.454l1.922,7.172-7.172,1.921" transform="translate(57.006 245.825)" fill="none" stroke="#29abe2" stroke-linecap="round" stroke-width="2"/>
      <path id="Trazado_1745" data-name="Trazado 1745" d="M40.055,36.547l-1.922-7.172L45.3,27.454" transform="translate(57.006 245.825)" fill="none" stroke="#29abe2" stroke-linecap="round" stroke-width="2"/>
      <line id="Línea_8" data-name="Línea 8" y1="17.5" x2="30.311" transform="translate(72.406 262.075)" fill="none" stroke="#29abe2" stroke-linecap="round" stroke-width="2"/>
      <path id="Trazado_1746" data-name="Trazado 1746" d="M15.806,27.453l7.172,1.922-1.922,7.171" transform="translate(57.006 245.825)" fill="none" stroke="#29abe2" stroke-linecap="round" stroke-width="2"/>
      <path id="Trazado_1747" data-name="Trazado 1747" d="M45.3,22.547l-7.172-1.922,1.922-7.171" transform="translate(57.006 245.825)" fill="none" stroke="#29abe2" stroke-linecap="round" stroke-width="2"/>
    </g>
  </g>
</svg>
