<svg xmlns="http://www.w3.org/2000/svg" width="14.355" height="25" viewBox="0 0 14.355 25">
    <g id="Grupo_68" data-name="Grupo 68" transform="translate(-708.841 -7.771)">
        <g id="Grupo_67" data-name="Grupo 67">
            <path id="Trazado_234" data-name="Trazado 234" d="M719.334,12.214a38.811,38.811,0,0,0-8.09,13.778,5.266,5.266,0,0,1-2.163-3.094,6.954,6.954,0,0,1,.474-4.892c.515-1.062,1.167-2.059,1.822-3.2l1.058,1.117A12.875,12.875,0,0,1,716.2,10.6l.564,1.143c1.743-1.833,3.617-3.445,6.248-3.968a13.875,13.875,0,0,1-1.053,6.307l1.24-.225a14.177,14.177,0,0,1-1.958,6.192h1.629a10.8,10.8,0,0,1-3.013,5.338A6.741,6.741,0,0,1,714.019,27c-.3,1.488-.6,2.95-.9,4.411-.031.151-.038.306-.06.458a.98.98,0,0,1-1.487.758.737.737,0,0,1-.222-.6,28.324,28.324,0,0,1,1.509-6.381,51.859,51.859,0,0,1,6.385-13.256A1.443,1.443,0,0,0,719.334,12.214Z" fill="#fff"/>
        </g>
    </g>
</svg>
