<svg xmlns="http://www.w3.org/2000/svg" width="32.05" height="30" viewBox="0 0 32.05 30">
  <g id="Grupo_970" data-name="Grupo 970" transform="translate(-562.557 -257.316)">
    <path id="Trazado_1678" data-name="Trazado 1678" d="M574.269,270.683h17.293a3.054,3.054,0,0,1,3.045,3.045v10.543a3.054,3.054,0,0,1-3.045,3.045H574.269a3.054,3.054,0,0,1-3.045-3.045V273.728A3.054,3.054,0,0,1,574.269,270.683Z" fill="#fff"/>
    <path id="Trazado_1679" data-name="Trazado 1679" d="M562.557,265.117a7.8,7.8,0,1,1,15.6,0v5.566h-3.044v-5.566a4.755,4.755,0,0,0-9.511,0v5.566h-3.044v-5.566Z" fill="#fff"/>
  </g>
</svg>
